<svg xmlns="http://www.w3.org/2000/svg" width="20" height="20" viewBox="0 0 20 20"><defs><style>.a{fill:#92929d;}</style></defs><path class="a" d="M2.5,14.167a2.5,2.5,0,0,1-2.5-2.5V2.876s0-.008,0-.012V2.5A2.5,2.5,0,0,1,2.5,0H15.833a2.5,2.5,0,0,1,2.5,2.5v.336c0,.021,0,.042,0,.062v8.769a2.5,2.5,0,0,1-2.5,2.5Zm-.833-2.5A.834.834,0,0,0,2.5,12.5H15.833a.834.834,0,0,0,.833-.833v-7.2L10.6,8.715a2.5,2.5,0,0,1-2.867,0L1.667,4.468ZM8.689,7.349a.832.832,0,0,0,.955,0l7.02-4.913a.834.834,0,0,0-.831-.77H2.5a.834.834,0,0,0-.831.77Z" transform="translate(0.833 3.333)"/></svg>