<svg xmlns="http://www.w3.org/2000/svg" width="20" height="20" viewBox="0 0 20 20"><defs><style>.a{fill:none;}.b{fill:#b5b5be;}</style></defs><path class="a" d="M0,0H20V20H0Z"/><path class="a" d="M0,0H20V20H0Z"/><path class="b" d="M.229,16.448a.758.758,0,0,1-.006-1.079l2.833-2.835A10.145,10.145,0,0,1,.065,8.641a.757.757,0,0,1,0-.615,10.06,10.06,0,0,1,3.4-4.195A8.486,8.486,0,0,1,8.333,2.273,8.393,8.393,0,0,1,12.3,3.28L15.359.224A.768.768,0,0,1,16.438.218.758.758,0,0,1,16.444,1.3L13.61,4.133A10.154,10.154,0,0,1,16.6,8.026a.757.757,0,0,1,0,.615,10.051,10.051,0,0,1-3.4,4.195,8.48,8.48,0,0,1-4.869,1.559,8.391,8.391,0,0,1-3.972-1.007L1.308,16.442a.768.768,0,0,1-1.079.006Zm8.1-3.57a7.637,7.637,0,0,0,6.74-4.545,8.521,8.521,0,0,0-2.545-3.118L10.946,6.8A3.029,3.029,0,0,1,6.8,10.946L5.494,12.254A6.832,6.832,0,0,0,8.333,12.878ZM1.593,8.333a8.513,8.513,0,0,0,2.545,3.118L5.721,9.868A3.029,3.029,0,0,1,9.866,5.72l1.307-1.308a6.829,6.829,0,0,0-2.84-.625A7.638,7.638,0,0,0,1.593,8.333Zm6.74,1.515A1.516,1.516,0,0,0,9.8,7.947L7.948,9.8A1.513,1.513,0,0,0,8.333,9.848ZM6.818,8.333a1.512,1.512,0,0,0,.05.386L8.719,6.868a1.516,1.516,0,0,0-1.9,1.465Z" transform="translate(1.667 1.667)"/></svg>