<svg xmlns="http://www.w3.org/2000/svg" width="20" height="20" viewBox="0 0 20 20"><defs><style>.a{fill:none;}.b{fill:#92929d;}</style></defs><path class="a" d="M0,0H20V20H0Z"/><path class="b" d="M12.119,16.667H1.214A1.222,1.222,0,0,1,0,15.44V7A1.222,1.222,0,0,1,1.214,5.77H2.522V4.245a4.2,4.2,0,1,1,8.408,0V5.77h1.19A1.222,1.222,0,0,1,13.333,7V15.44A1.222,1.222,0,0,1,12.119,16.667ZM1.519,7.285v7.867h10.3V7.285Zm5.206-5.77A2.711,2.711,0,0,0,4.04,4.245v1.5H9.41v-1.5A2.711,2.711,0,0,0,6.725,1.515Z" transform="translate(3.333 1.667)"/></svg>